<svg width="368" height="298" viewBox="0 0 368 298" fill="none" xmlns="http://www.w3.org/2000/svg">
<path d="M182.631 7.38859L118.679 74.7967L39.5943 117.602C37.8828 118.435 29.5666 131.086 30.4703 132.752L77.673 200.993L89.7871 293.129C89.849 293.573 89.9999 293.999 90.2306 294.384C90.4614 294.768 90.7673 295.102 91.1301 295.365C91.4928 295.628 91.9049 295.815 92.3418 295.916C92.7786 296.016 93.2312 296.027 93.6724 295.948L185.009 278.991L276.366 295.936C276.807 296.017 277.261 296.009 277.698 295.91C278.136 295.811 278.549 295.623 278.912 295.36C279.275 295.096 279.581 294.761 279.811 294.375C280.04 293.99 280.189 293.561 280.247 293.116L292.361 200.993L336.707 119.347C336.924 118.952 337.059 118.516 337.101 118.067C337.144 117.618 337.094 117.165 336.955 116.736C336.817 116.307 336.591 115.911 336.294 115.572C335.996 115.233 335.632 114.959 335.225 114.766L251.355 74.7884L187.428 7.38859C187.119 7.06299 186.747 6.80369 186.335 6.62649C185.923 6.4493 185.478 6.35791 185.03 6.35791C184.581 6.35791 184.137 6.4493 183.724 6.62649C183.312 6.80369 182.94 7.06299 182.631 7.38859" fill="#FF642D"/>
<path d="M182.631 7.38859L118.679 74.7967L39.5943 117.602C37.8828 118.435 29.5666 131.086 30.4703 132.752L77.673 200.993L89.7871 293.129C89.849 293.573 89.9999 293.999 90.2306 294.384C90.4614 294.768 90.7673 295.102 91.1301 295.365C91.4928 295.628 91.9049 295.815 92.3418 295.916C92.7786 296.016 93.2312 296.027 93.6724 295.948L185.009 278.991L276.366 295.936C276.807 296.017 277.261 296.009 277.698 295.91C278.136 295.811 278.549 295.623 278.912 295.36C279.275 295.096 279.581 294.761 279.811 294.375C280.04 293.99 280.189 293.561 280.247 293.116L292.361 200.993L336.707 119.347C336.924 118.952 337.059 118.516 337.101 118.067C337.144 117.618 337.094 117.165 336.955 116.736C336.817 116.307 336.591 115.911 336.294 115.572C335.996 115.233 335.632 114.959 335.225 114.766L251.355 74.7884L187.428 7.38859C187.119 7.06299 186.747 6.80369 186.335 6.62649C185.923 6.4493 185.478 6.35791 185.03 6.35791C184.581 6.35791 184.137 6.4493 183.724 6.62649C183.312 6.80369 182.94 7.06299 182.631 7.38859" stroke="white" stroke-width="2" stroke-miterlimit="10" stroke-linejoin="round"/>
<path d="M150.116 3.1202C147.711 2.15927 145.107 1.80849 142.534 2.09914C139.961 2.3898 137.499 3.31284 135.37 4.78593C89.4773 36.4949 53.1775 80.202 30.4329 131.136C41.8473 162.369 68.7448 183.015 94.8843 197.241C120.341 211.091 157.599 199.323 181.394 213.186C228.401 186.245 263.694 142.767 280.393 91.2251C282.234 85.5532 284.974 82.1885 281.226 77.7993C280.422 76.8664 270.661 69.7413 268.733 68.3545C232.008 41.8443 192.172 19.9362 150.116 3.1202V3.1202Z" fill="#FF642D" stroke="white" stroke-width="1.2" stroke-linecap="round" stroke-linejoin="round"/>
<path d="M313.141 217.688C311.66 191.799 308.019 166.08 302.256 140.797C299.116 127.055 295.526 114.191 291.716 102.298C289.155 94.3067 286.981 81.5888 278.64 75.8586C289.18 82.5008 238.55 184.794 178.796 205.873C176.343 203.708 185.613 203.791 180.911 202.596C132.73 190.27 37.8831 151.818 30 132.7C30.3914 152.772 33.1897 176.952 40.698 205.936C47.2991 231.411 56.9862 255.985 69.5444 279.112C70.296 280.495 71.4543 281.614 72.8627 282.318C74.271 283.022 75.8615 283.276 77.4191 283.047C112.966 277.887 151.79 270.6 193.134 260.301C232.013 250.619 270.374 238.965 308.069 225.383C309.632 224.819 310.97 223.765 311.884 222.378C312.798 220.991 313.239 219.346 313.141 217.688Z" fill="white" stroke="white" stroke-width="1.2" stroke-linecap="round" stroke-linejoin="round"/>
<path d="M30.4001 132C30.7874 152.072 33.1897 176.952 40.698 205.936C47.2991 231.411 56.9862 255.985 69.5443 279.112C70.296 280.495 71.4543 281.614 72.8626 282.318C74.271 283.022 75.8615 283.276 77.4191 283.047C112.966 277.887 151.79 270.6 193.134 260.301C232.013 250.619 270.374 238.965 308.069 225.383C309.633 224.821 310.973 223.767 311.889 222.38C312.805 220.993 313.247 219.347 313.15 217.688C311.668 191.799 308.027 166.08 302.264 140.797" stroke="white" stroke-width="1.2" stroke-linecap="round" stroke-linejoin="round"/>
<path d="M312.063 222.077C301.548 211.666 257.256 180.879 223.083 165.442C212.452 160.64 191.285 148.102 174.727 151.162C167.877 152.412 147.33 165.738 138.16 188.475" fill="white"/>
<path d="M312.063 222.077C301.548 211.666 257.256 180.879 223.083 165.442C212.452 160.64 191.285 148.102 174.727 151.162C167.877 152.412 147.33 165.738 138.16 188.475" stroke="#FF642D" stroke-width="1.2" stroke-linecap="round" stroke-linejoin="round"/>
<path d="M133.475 186.163C130.489 197.74 127.125 213.802 81.7334 274.256C86.589 272.082 96.6209 259.502 101.477 257.332L140.913 212.465L146.385 186.039C141.238 186.039 138.602 186.163 133.475 186.163Z" fill="#FF642D"/>
<path d="M71.8513 283.767C85.4812 271.1 102.626 252.86 117.963 228.124C125.782 215.49 132.546 202.233 138.185 188.487L204.552 181.383" fill="white"/>
<path d="M71.8513 283.767C85.4812 271.1 102.626 252.86 117.963 228.124C125.782 215.49 132.546 202.233 138.185 188.487L204.552 181.383" stroke="#FF642D" stroke-width="1.2" stroke-miterlimit="10"/>
<path d="M119.66 45.1734C123.789 40.7945 122.046 32.4441 115.767 26.5223C109.487 20.6004 101.049 19.3496 96.9192 23.7285C92.7899 28.1074 94.5331 36.4578 100.813 42.3797C107.093 48.3015 115.531 49.5523 119.66 45.1734Z" fill="white"/>
<path d="M119.66 45.1734C123.789 40.7945 122.046 32.4441 115.767 26.5223C109.487 20.6004 101.049 19.3496 96.9192 23.7285C92.7899 28.1074 94.5331 36.4578 100.813 42.3797C107.093 48.3015 115.531 49.5523 119.66 45.1734Z" fill="white" stroke="#FF642D" stroke-width="1.2" stroke-linecap="round" stroke-linejoin="round"/>
<path d="M116.959 41.4696C115.477 43.0437 111.592 41.7944 108.285 38.6795C104.979 35.5646 103.509 31.7584 104.991 30.1842C106.474 28.6101 110.363 29.8594 113.665 32.9743C116.968 36.0893 118.446 39.8955 116.959 41.4696Z" fill="#FF642D" stroke="#FF642D" stroke-width="1.2" stroke-linecap="round" stroke-linejoin="round"/>
<path d="M112.699 44.9343C105.12 41.9443 99.3236 36.0518 99.3736 31.471C99.3829 31.1994 99.4725 30.9366 99.6311 30.7158C99.7897 30.4951 100.01 30.3264 100.265 30.231C100.519 30.1356 100.796 30.1178 101.061 30.1799C101.326 30.242 101.566 30.3812 101.751 30.5799V30.5799C102.165 31.0357 102.394 31.6298 102.393 32.2456C102.522 37.7175 109.776 42.9021 112.699 44.9343Z" fill="#FF642D"/>
<path d="M202.408 59.093C166.049 58.5266 159.515 40.1619 141.467 31.3335C133.554 27.1691 121.665 30.2966 113.095 39.3873C105.978 46.9372 103.101 56.5111 104.97 63.9319C105.127 64.5595 105.322 65.177 105.553 65.7809C112.803 87.1314 135.537 97.18 133.704 121.645L202.408 59.093Z" fill="white"/>
<path d="M144.473 111.83C144.749 110.125 145.125 108.437 145.598 106.775C144.69 81.1059 104.471 64.6401 107.24 47.8162C104.562 53.3256 103.75 59.0807 104.97 63.9197C105.127 64.5472 105.322 65.1647 105.553 65.7686C112.803 87.1192 135.537 97.1677 133.704 121.633L144.473 111.83Z" fill="#FF642D"/>
<path d="M202.408 59.093C166.049 58.5266 159.515 40.1619 141.467 31.3335C133.554 27.1691 121.665 30.2966 113.095 39.3873C105.978 46.9372 103.101 56.5111 104.97 63.9319C105.127 64.5595 105.322 65.177 105.553 65.7809C112.803 87.1314 135.537 97.18 133.704 121.645L202.408 59.093Z" stroke="white" stroke-width="1.2" stroke-linecap="round" stroke-linejoin="round"/>
<path d="M199.366 126.488C221.15 103.387 228.973 75.3842 216.839 63.9413C204.704 52.4983 177.207 61.949 155.423 85.05C133.639 108.151 125.816 136.154 137.95 147.597C150.085 159.04 177.581 149.589 199.366 126.488Z" fill="#FF642D"/>
<path d="M216.833 63.9321C209.978 57.4732 198.156 57.3233 185.305 62.8785C180.911 64.7774 174.34 64.7233 169.842 67.8216C164.187 71.7152 153.185 86.7443 152.265 87.8104C132.655 110.256 126.35 136.675 137.944 147.606C142.354 151.77 148.8 153.153 156.267 152.137C152.211 152.462 139.834 152.229 136.569 139.894C135.812 136.779 137.036 135.313 138.169 135.792C139.664 136.425 142.924 147.494 153.643 144.225C158.503 135.238 163.771 124.681 168.656 115.728C182.756 101.095 200.205 93.2865 214.301 78.6655C214.247 73.7932 210.137 67.8382 212.606 65.9476C214.451 64.5359 217.878 65.2147 220.722 70.9032C219.781 68.1547 218.848 65.8352 216.833 63.9321Z" fill="white"/>
<path d="M202.407 59.093C208.213 58.9764 213.206 60.5297 216.833 63.9486C228.963 75.3922 221.143 103.393 199.342 126.497C177.542 149.601 150.078 159.037 137.952 147.589C132.051 142.03 130.872 132.556 133.713 121.633" stroke="white" stroke-width="1.2" stroke-miterlimit="10"/>
<path d="M135.574 113.229C139.447 103.86 146.468 93.8069 155.113 84.6412C156.812 82.8367 158.542 81.1196 160.302 79.4899C161.351 78.5155 162.408 77.573 163.471 76.6624" stroke="#FF642D" stroke-width="1.2" stroke-linecap="round" stroke-linejoin="round"/>
<path d="M181.09 64.6316C195.832 56.8484 209.783 55.6658 217.507 62.9659" stroke="#FF642D" stroke-width="1.2" stroke-linecap="round" stroke-linejoin="round"/>
<path d="M193.164 120.64C211.337 101.369 219.008 79.0894 210.299 70.8764C201.59 62.6635 179.798 71.6277 161.625 90.8985C143.452 110.169 135.781 132.449 144.49 140.662C153.199 148.875 174.991 139.911 193.164 120.64Z" fill="#FF642D"/>
<path d="M166.807 95.7849C183.135 78.4654 202.378 69.4829 212.435 73.7889C211.896 72.6997 211.17 71.7132 210.291 70.8738C201.583 62.6617 179.791 71.6276 161.618 90.9001C143.445 110.173 135.774 132.452 144.482 140.664C145.371 141.495 146.402 142.161 147.526 142.63C142.633 132.835 150.478 113.1 166.807 95.7849Z" fill="black"/>
<path d="M172.987 84.7246L160.91 95.9683L157.258 99.408C158.419 100.884 159.862 102.113 161.504 103.025C163.145 103.936 164.952 104.511 166.819 104.715C168.685 104.92 170.573 104.75 172.374 104.216C174.174 103.682 175.849 102.795 177.302 101.605C178.755 100.416 179.956 98.949 180.835 97.2899C181.714 95.6309 182.254 93.8131 182.422 91.943C182.59 90.073 182.384 88.1882 181.815 86.3989C181.246 84.6095 180.326 82.9517 179.108 81.5222L172.987 84.7246Z" fill="black"/>
<path d="M185.979 72.1899C182.236 74.0761 178.659 76.2743 175.285 78.7613C171.951 81.2081 168.777 83.8662 165.782 86.7193C166.1 89.1406 167.041 91.438 168.512 93.3871C169.984 95.3362 171.935 96.8704 174.177 97.8399C176.418 98.8095 178.873 99.1811 181.301 98.9187C183.729 98.6562 186.047 97.7686 188.03 96.3425C190.012 94.9163 191.591 93.0005 192.611 90.782C193.632 88.5634 194.06 86.1181 193.854 83.6848C193.647 81.2514 192.813 78.9132 191.433 76.8985C190.053 74.8838 188.174 73.2615 185.979 72.1899V72.1899Z" fill="#FF642D"/>
<path d="M165.782 86.7193C166.1 89.1406 167.041 91.438 168.512 93.3871C169.984 95.3362 171.935 96.8704 174.177 97.8399C176.418 98.8095 178.873 99.1811 181.301 98.9187C183.729 98.6562 186.047 97.7686 188.03 96.3425C190.012 94.9163 191.591 93.0005 192.611 90.782C193.632 88.5634 194.06 86.1181 193.854 83.6848C193.647 81.2514 192.813 78.9132 191.433 76.8985C190.053 74.8838 188.174 73.2615 185.979 72.1899" stroke="black" stroke-width="1.2" stroke-miterlimit="10"/>
<path d="M190.052 79.3193C192.38 82.6883 192.105 86.786 190.418 87.9353C188.732 89.0847 188.19 85.5242 185.446 82.4842C182.381 79.0861 180.449 77.0456 182.148 75.8838C183.847 74.7219 187.749 75.9379 190.052 79.3193Z" fill="white"/>
<path d="M249.14 73.8264C245.562 62.6494 236.647 52.2968 221.722 50.5644C216.933 50.0064 217.657 46.4626 219.777 46.8165C250.41 51.9262 249.244 74.1429 249.14 73.8264Z" fill="white"/>
<path d="M255.228 29.7471C265.859 39.7664 264.927 50.8977 264.102 55.1162C264.088 55.1889 264.048 55.2542 263.991 55.3012C263.934 55.3482 263.862 55.3739 263.788 55.3739C263.714 55.3739 263.642 55.3482 263.584 55.3012C263.527 55.2542 263.488 55.1889 263.473 55.1162C262.295 46.4669 260.558 40.2453 249.506 30.9381C244.359 26.6071 237.33 24.3209 231.141 23.4422C230.84 23.3963 230.565 23.244 230.367 23.0129C230.168 22.7818 230.059 22.4872 230.059 22.1825C230.059 21.8779 230.168 21.5833 230.367 21.3522C230.565 21.1211 230.84 20.9688 231.141 20.9228C236.792 20.0525 245.758 20.8187 255.228 29.7471Z" fill="white" stroke="white" stroke-width="1.2" stroke-linecap="round" stroke-linejoin="round"/>
<path d="M167.161 181.383L171.362 169.781L183.439 160.67L194.42 158.658L203.569 161.219L209.791 167.661L218.207 175.474V183.632L213.909 195.433L204.536 204.545L192.684 210.259L176.855 206.781L169.172 196.608L167.161 181.383Z" fill="white"/>
<path d="M208.6 180.221C208.983 182.108 208.104 182.582 205.71 183.07C203.17 183.582 202.653 183.232 201.962 181.404C200.467 176.657 196.377 173.188 190.789 173.875C189.027 174.083 188.457 173.521 188.015 171.351C187.599 169.323 187.699 168.328 189.302 168.02C198.876 166.063 207.017 172.405 208.6 180.221ZM222.488 177.402C219.54 162.86 206.58 149.501 183.851 154.115L138.668 163.277C137.752 163.464 137.29 164.051 137.46 164.88C137.525 165.097 137.638 165.296 137.789 165.465C137.94 165.633 138.126 165.766 138.335 165.854C140.263 166.82 142.957 167.757 146.526 168.724C149.974 169.656 152.614 170.181 155.271 170.693C156.375 170.901 156.87 171.268 156.991 171.863C157.149 172.646 156.695 173.267 155.554 173.5L119.704 180.775C118.638 180.992 118.263 181.77 118.404 182.441C118.465 182.738 118.587 183.02 118.763 183.267C118.938 183.514 119.164 183.722 119.425 183.878C122.944 186.326 128.316 189.054 135.949 191.915C142.895 194.486 149.968 196.699 157.141 198.544C158.207 198.811 158.661 199.286 158.753 199.86C158.861 200.518 158.461 201.168 157.324 201.397L140.892 204.728C139.955 204.916 139.543 205.507 139.697 206.265C139.887 206.782 140.265 207.208 140.754 207.46C145.181 210.092 151.911 212.582 160.568 214.356C172.116 216.734 183.472 217.271 195.624 214.798C218.632 210.138 225.236 190.865 222.488 177.402ZM196.669 204.12C185.375 206.411 174.102 199.123 171.783 187.692C169.497 176.398 177.067 165.45 188.361 163.16C199.938 160.811 210.849 168.028 213.114 179.309C213.684 182.02 213.709 184.816 213.188 187.536C212.668 190.257 211.611 192.846 210.081 195.155C208.551 197.463 206.578 199.445 204.275 200.984C201.973 202.523 199.387 203.589 196.669 204.12Z" fill="black"/>
<path d="M46.3989 205.653C50.3506 218.898 55.0571 231.907 60.4952 244.614C62.3719 249.006 64.2806 253.246 66.2212 257.332" stroke="#FF642D" stroke-width="1.2" stroke-linecap="round" stroke-linejoin="round"/>
<path d="M275.604 105.763C267.363 123.994 253.233 146.486 241.944 159.899" stroke="#FF642D" stroke-width="1.2" stroke-linecap="round" stroke-linejoin="round"/>
<path d="M282.746 77.7285C285.111 85.0744 280.776 93.1907 277.82 100.582" stroke="#FF642D" stroke-width="1.2" stroke-linecap="round" stroke-linejoin="round"/>
<path d="M96.4335 129.021C91.2739 140.223 94.4638 156.164 101.576 165.196C102.051 165.796 101.252 166.812 100.635 166.346C83.2284 153.19 91.0573 123.39 92.873 121.633C95.6423 118.98 97.7452 124.948 96.4335 129.021Z" fill="white"/>
<path d="M114.54 130.491C112.987 131.644 107.044 156.643 126.712 160.137C127.637 160.299 128.236 159.166 127.708 158.617C126.104 156.951 113.182 154.665 118.067 136.916C119.104 133.147 115.993 129.412 114.54 130.491Z" fill="white"/>
<path d="M70.3188 265.744C71.707 268.495 73.0951 271.169 74.4832 273.765" stroke="#FF642D" stroke-width="1.2" stroke-linecap="round" stroke-linejoin="round"/>
<path d="M193.154 120.629C211.328 101.361 218.998 79.0776 210.291 70.8655C201.583 62.6534 179.791 71.6193 161.618 90.8918C143.445 110.164 135.774 132.444 144.482 140.656C146.701 142.738 149.77 143.725 153.41 143.7" stroke="white" stroke-width="1.2" stroke-linecap="round" stroke-linejoin="round"/>
<path d="M183.343 129.778C184.523 128.821 185.719 127.8 186.933 126.718C189.244 124.635 191.318 122.595 193.158 120.629" stroke="white" stroke-width="1.2" stroke-linecap="round" stroke-linejoin="round"/>
</svg>
